<svg xmlns="http://www.w3.org/2000/svg" viewBox="0 0 100 100">
  <title>Tiny Hops</title>
  <rect width="100" height="100" rx="22" fill="#bfe6a4" />
  <g fill="#fcd34d" stroke="#b45309" stroke-width="3" stroke-linejoin="round">
    <rect x="46" y="5" width="8" height="24" rx="3" />
    <rect x="39" y="10" width="22" height="8" rx="3" />
    <path d="M34 47 Q30 31 42 27 Q50 23 58 27 Q70 31 66 47 Z" />
    <path d="M30 90 Q25 90 27 84 Q30 76 37 72 Q34 58 37 46 H63 Q66 58 63 72 Q70 76 73 84 Q75 90 70 90 Z" />
    <ellipse cx="50" cy="47" rx="17" ry="5" />
  </g>
  <ellipse cx="43" cy="60" rx="3.6" ry="4.2" fill="#1f2937" />
  <ellipse cx="57" cy="60" rx="3.6" ry="4.2" fill="#1f2937" />
  <path d="M45 67 Q50 72.5 55 67" stroke="#1f2937" stroke-width="2.6" fill="none" stroke-linecap="round" />
</svg>
