<svg xmlns="http://www.w3.org/2000/svg" viewBox="0 0 45 45">
  <title>Sensory Chess Motions Favicon</title>
  <rect width="45" height="45" rx="10" fill="#22c55e" />
  <g fill="#ffffff" stroke="#1a2e05" stroke-width="1.5" stroke-linecap="round" stroke-linejoin="round">
    <path d="M22 10c10.5 1 16.5 8 16 29H15c0-9 10-6.5 8-21"/>
    <path d="M24 18c.38 2.91-5.55 7.37-8 9-3 2-2.82 4.34-5 4-1.042-.94 1.41-3.04 0-3-1 0 .19 1.23-1 2-1 0-4.003 1-4-4 0-2 6-12 6-12s1.89-1.9 2-3.5c-.73-.994-.5-2-.5-3 1-1 3 2.5 3 2.5h2s.78-1.992 2.5-3c1 0 1 3 1 3"/>
    <circle cx="9" cy="26" r="1" fill="#1a2e05" stroke="none"/>
    <path d="M9 36c3.39-.97 10.11.43 13.5-2 3.39 2.43 10.11 1.03 13.5 2 0 0 1.65.54 3 2-.68.97-1.65.99-3 .5-3.39-.97-10.11.46-13.5-1-3.39 1.46-10.11.03-13.5 1-1.35.49-2.32.47-3-.5 1.35-1.46 3-2 3-2z"/>
  </g>
</svg>
